<mxfile host="app.diagrams.net" modified="2022-07-08T07:34:21.632Z" agent="5.0 (Macintosh; Intel Mac OS X 10_15_7) AppleWebKit/605.1.15 (KHTML, like Gecko) Version/15.5 Safari/605.1.15" etag="QwV0ksW-0u7Vn9mqBoga" version="20.0.4" type="github">
  <diagram id="rTmouVP0BkRnEApw6isp" name="Page-1">
    <mxGraphModel dx="946" dy="645" grid="1" gridSize="10" guides="1" tooltips="1" connect="1" arrows="1" fold="1" page="1" pageScale="1" pageWidth="827" pageHeight="1169" math="0" shadow="0">
      <root>
        <mxCell id="0" />
        <mxCell id="1" parent="0" />
        <mxCell id="l3KIIkbgnX2HSSAmVBm3-1" value="" style="rounded=0;whiteSpace=wrap;html=1;fillColor=#f5f5f5;fontColor=#333333;strokeColor=#666666;" vertex="1" parent="1">
          <mxGeometry x="10" y="90" width="800" height="380" as="geometry" />
        </mxCell>
        <mxCell id="l3KIIkbgnX2HSSAmVBm3-13" value="" style="rounded=1;whiteSpace=wrap;html=1;fontSize=35;fillColor=#ffe6cc;strokeColor=#d79b00;" vertex="1" parent="1">
          <mxGeometry x="200" y="153" width="420" height="230" as="geometry" />
        </mxCell>
        <mxCell id="l3KIIkbgnX2HSSAmVBm3-8" value="" style="verticalLabelPosition=bottom;verticalAlign=top;html=1;shape=mxgraph.basic.three_corner_round_rect;dx=6;fontSize=35;fillColor=#fff2cc;strokeColor=#d6b656;" vertex="1" parent="1">
          <mxGeometry x="231" y="199" width="359" height="165" as="geometry" />
        </mxCell>
        <mxCell id="l3KIIkbgnX2HSSAmVBm3-5" value="&lt;font style=&quot;font-size: 24px;&quot;&gt;P2P&lt;/font&gt;" style="text;html=1;strokeColor=none;fillColor=none;align=center;verticalAlign=middle;whiteSpace=wrap;rounded=0;fontSize=35;" vertex="1" parent="1">
          <mxGeometry x="375" y="164" width="60" height="30" as="geometry" />
        </mxCell>
        <mxCell id="l3KIIkbgnX2HSSAmVBm3-9" value="" style="shape=doubleArrow;whiteSpace=wrap;html=1;fontSize=35;fillColor=#f8cecc;strokeColor=#b85450;" vertex="1" parent="1">
          <mxGeometry x="358" y="244" width="100" height="60" as="geometry" />
        </mxCell>
        <mxCell id="l3KIIkbgnX2HSSAmVBm3-14" value="&lt;font style=&quot;font-size: 28px;&quot;&gt;광고수익&lt;/font&gt;" style="text;html=1;strokeColor=none;fillColor=none;align=center;verticalAlign=middle;whiteSpace=wrap;rounded=0;fontSize=35;" vertex="1" parent="1">
          <mxGeometry x="260" y="112" width="290" height="30" as="geometry" />
        </mxCell>
        <mxCell id="l3KIIkbgnX2HSSAmVBm3-22" value="" style="group" vertex="1" connectable="0" parent="1">
          <mxGeometry x="478.5" y="230.5" width="51.5" height="75" as="geometry" />
        </mxCell>
        <mxCell id="l3KIIkbgnX2HSSAmVBm3-12" value="&lt;font style=&quot;font-size: 20px;&quot;&gt;피대여자&lt;/font&gt;" style="shape=umlActor;verticalLabelPosition=bottom;verticalAlign=top;html=1;outlineConnect=0;fontSize=35;fillColor=#d5e8d4;strokeColor=#82b366;" vertex="1" parent="l3KIIkbgnX2HSSAmVBm3-22">
          <mxGeometry x="8.583333333333334" y="13.5" width="34.333333333333336" height="60" as="geometry" />
        </mxCell>
        <mxCell id="l3KIIkbgnX2HSSAmVBm3-19" value="" style="shape=actor;whiteSpace=wrap;html=1;fontSize=28;fillColor=#d5e8d4;strokeColor=#82b366;" vertex="1" parent="l3KIIkbgnX2HSSAmVBm3-22">
          <mxGeometry width="51.49999999999999" height="75" as="geometry" />
        </mxCell>
        <mxCell id="l3KIIkbgnX2HSSAmVBm3-23" value="" style="group" vertex="1" connectable="0" parent="1">
          <mxGeometry x="280" y="229" width="57.5" height="75" as="geometry" />
        </mxCell>
        <mxCell id="l3KIIkbgnX2HSSAmVBm3-11" value="&lt;font style=&quot;font-size: 20px;&quot;&gt;대여자&lt;/font&gt;" style="shape=umlActor;verticalLabelPosition=bottom;verticalAlign=top;html=1;outlineConnect=0;fontSize=35;fillColor=#d5e8d4;strokeColor=#82b366;" vertex="1" parent="l3KIIkbgnX2HSSAmVBm3-23">
          <mxGeometry x="9.583333333333332" y="15" width="38.33333333333333" height="60" as="geometry" />
        </mxCell>
        <mxCell id="l3KIIkbgnX2HSSAmVBm3-18" value="" style="shape=actor;whiteSpace=wrap;html=1;fontSize=28;fillColor=#d5e8d4;strokeColor=#82b366;" vertex="1" parent="l3KIIkbgnX2HSSAmVBm3-23">
          <mxGeometry width="57.49999999999999" height="75" as="geometry" />
        </mxCell>
        <mxCell id="l3KIIkbgnX2HSSAmVBm3-29" value="보증금 / 보증보험" style="html=1;fontSize=28;fillColor=#dae8fc;strokeColor=#6c8ebf;" vertex="1" parent="1">
          <mxGeometry x="288" y="400" width="251" height="50" as="geometry" />
        </mxCell>
        <mxCell id="l3KIIkbgnX2HSSAmVBm3-32" value="&lt;font style=&quot;font-size: 19px;&quot;&gt;오프라인 &lt;br&gt;대여 사업자&lt;/font&gt;" style="rounded=1;whiteSpace=wrap;html=1;fontSize=28;fillColor=#fff2cc;strokeColor=#d6b656;" vertex="1" parent="1">
          <mxGeometry x="20" y="219.5" width="130" height="121" as="geometry" />
        </mxCell>
        <mxCell id="l3KIIkbgnX2HSSAmVBm3-33" value="" style="shape=doubleArrow;whiteSpace=wrap;html=1;fontSize=35;fillColor=#f8cecc;strokeColor=#b85450;" vertex="1" parent="1">
          <mxGeometry x="160" y="247" width="100" height="60" as="geometry" />
        </mxCell>
        <mxCell id="l3KIIkbgnX2HSSAmVBm3-34" value="이용자&lt;br&gt;데이터 분석" style="rounded=1;whiteSpace=wrap;html=1;fontSize=19;fillColor=#dae8fc;strokeColor=#6c8ebf;" vertex="1" parent="1">
          <mxGeometry x="670" y="216.25" width="120" height="113.5" as="geometry" />
        </mxCell>
        <mxCell id="l3KIIkbgnX2HSSAmVBm3-38" value="" style="endArrow=classic;html=1;rounded=0;fontSize=19;" edge="1" parent="1">
          <mxGeometry width="50" height="50" relative="1" as="geometry">
            <mxPoint x="409" y="389" as="sourcePoint" />
            <mxPoint x="409" y="311" as="targetPoint" />
          </mxGeometry>
        </mxCell>
        <mxCell id="l3KIIkbgnX2HSSAmVBm3-39" value="" style="endArrow=classic;html=1;rounded=0;fontSize=19;entryX=1;entryY=0.5;entryDx=0;entryDy=0;entryPerimeter=0;" edge="1" parent="1">
          <mxGeometry width="50" height="50" relative="1" as="geometry">
            <mxPoint x="663" y="270" as="sourcePoint" />
            <mxPoint x="593" y="269.5" as="targetPoint" />
          </mxGeometry>
        </mxCell>
        <mxCell id="l3KIIkbgnX2HSSAmVBm3-40" value="&lt;font size=&quot;5&quot;&gt;B2C&lt;/font&gt;" style="text;html=1;strokeColor=none;fillColor=none;align=center;verticalAlign=middle;whiteSpace=wrap;rounded=0;fontSize=35;" vertex="1" parent="1">
          <mxGeometry x="55" y="186.25" width="60" height="30" as="geometry" />
        </mxCell>
      </root>
    </mxGraphModel>
  </diagram>
</mxfile>
